# xmcd
#
# Track frame offsets:
#	150
#	10968
#	21057
#	37972
#	49611
#
# Disc length: 796 seconds
#
# Revision: 1
# Processed by: cddbd v1.5PL3 Copyright (c) Steve Scherf et al.
# Submitted via: CDmax 2.0
#
DISCID=2f031a05
DTITLE=Greg Parker - On The Break EP
DYEAR=2004
DGENRE=Country
TTITLE0=Get In Line Caroline
TTITLE1=Disaster Waiting To Happen
TTITLE2=A Heart Is A Terrible Thing To Break
TTITLE3=Molly Dear
TTITLE4=Kathleen
EXTD=
EXTT0=
EXTT1=
EXTT2=
EXTT3=
EXTT4=
PLAYORDER=
